<svg width="39" height="34" viewBox="0 0 39 34" fill="none" xmlns="http://www.w3.org/2000/svg">
<path fill-rule="evenodd" clip-rule="evenodd" d="M4.76895 2.26667H1.13331C0.507398 2.26667 0 1.75926 0 1.13333C0 0.507411 0.507398 1.88133e-07 1.13331 1.88133e-07H5.66653C6.1927 -0.000301222 6.64987 0.361598 6.77036 0.873801L7.63054 4.53333H30.5992C31.638 4.53308 32.6199 5.00775 33.265 5.822C33.9101 6.63625 34.1475 7.70073 33.9096 8.71193L31.5081 18.9119C31.1506 20.4501 29.778 21.5374 28.1989 21.5333H9.06644C8.44053 21.5333 7.93314 22.0407 7.93314 22.6667C7.93314 23.2926 8.44053 23.8 9.06644 23.8H28.3326C28.9585 23.8 29.4659 24.3074 29.4659 24.9333C29.4659 25.5593 28.9585 26.0667 28.3326 26.0667H9.06644C7.24475 26.0745 5.74238 24.6416 5.66408 22.8215C5.58578 21.0014 6.95955 19.4447 8.77518 19.2961L4.76895 2.26667ZM31.4797 7.23607C31.2661 6.96651 30.9431 6.80656 30.5992 6.8H8.1598L11.0973 19.2667H28.1989C28.7251 19.2684 29.1824 18.9057 29.3005 18.3929L31.7031 8.19287C31.7752 7.85658 31.6933 7.50563 31.4797 7.23607Z" fill="black"/>
<path fill-rule="evenodd" clip-rule="evenodd" d="M24.9326 34.0002C23.0549 34.0002 21.5327 32.478 21.5327 30.6002C21.5327 28.7224 23.0549 27.2002 24.9326 27.2002C26.8104 27.2002 28.3325 28.7224 28.3325 30.6002C28.3325 32.478 26.8104 34.0002 24.9326 34.0002ZM24.9326 31.7335C25.5585 31.7335 26.0659 31.2261 26.0659 30.6002C26.0659 29.9743 25.5585 29.4669 24.9326 29.4669C24.3067 29.4669 23.7993 29.9743 23.7993 30.6002C23.7993 31.2261 24.3067 31.7335 24.9326 31.7335Z" fill="black"/>
<path fill-rule="evenodd" clip-rule="evenodd" d="M12.4663 34.0002C10.5886 34.0002 9.06641 32.478 9.06641 30.6002C9.06641 28.7224 10.5886 27.2002 12.4663 27.2002C14.344 27.2002 15.8662 28.7224 15.8662 30.6002C15.8662 32.478 14.344 34.0002 12.4663 34.0002ZM12.4663 31.7335C13.0922 31.7335 13.5996 31.2261 13.5996 30.6002C13.5996 29.9743 13.0922 29.4669 12.4663 29.4669C11.8404 29.4669 11.333 29.9743 11.333 30.6002C11.333 31.2261 11.8404 31.7335 12.4663 31.7335Z" fill="black"/>
</svg>
