<svg width="15" height="18" viewBox="0 0 15 18" fill="none" xmlns="http://www.w3.org/2000/svg">
<path fill-rule="evenodd" clip-rule="evenodd" d="M14.9535 4.02333L14.548 2.832C14.3935 2.37827 13.9618 2.07339 13.474 2.07339H10.0658V0.985886C10.0658 0.442337 9.61495 0 9.0605 0H5.9395C5.38519 0 4.93415 0.442337 4.93415 0.985886V2.07339H1.52619C1.03816 2.07339 0.606452 2.37827 0.452042 2.832L0.0465391 4.02333C-0.045799 4.29456 0.00100057 4.59489 0.171525 4.82684C0.342049 5.05879 0.617942 5.19736 0.909669 5.19736H1.33353L2.26644 16.5038C2.33579 17.3427 3.06217 18 3.92039 18H11.2689C12.127 18 12.8535 17.3427 12.9227 16.5037L13.8556 5.19736H14.0903C14.3821 5.19736 14.658 5.05879 14.8285 4.82698C14.999 4.59503 15.0458 4.29456 14.9535 4.02333ZM6.01026 1.05469H8.98974V2.07339H6.01026V1.05469ZM11.2689 16.9453C11.5704 16.9453 11.8257 16.7141 11.8501 16.4187L12.776 5.19736H2.41314L3.33918 16.4187C3.36356 16.7141 3.61886 16.9453 3.92039 16.9453H11.2689ZM1.14044 4.14267L1.47294 3.16571C1.48051 3.14319 1.50195 3.12808 1.52619 3.12808H13.474C13.4982 3.12808 13.5195 3.14319 13.5272 3.16571L13.8597 4.14267H1.14044ZM10.1624 16.382L10.1469 16.3818L10.1339 16.3813C9.83718 16.3662 9.6092 16.118 9.62462 15.8272L10.1297 6.32098C10.1453 6.03012 10.3976 5.80627 10.6951 5.82179C10.9918 5.8369 11.2199 6.08505 11.2045 6.37592L10.6992 15.8821C10.6843 16.1636 10.4467 16.382 10.1624 16.382ZM4.32478 15.8833C4.34047 16.1645 4.57783 16.382 4.86157 16.382C4.87138 16.382 4.88147 16.3817 4.89141 16.3812C5.18805 16.3654 5.41546 16.1168 5.39934 15.8259L4.87012 6.31975C4.854 6.02888 4.60039 5.806 4.30362 5.82193C4.00699 5.83772 3.77957 6.08629 3.79569 6.37715L4.32478 15.8833ZM8.04408 15.8546C8.04408 16.1459 7.80322 16.382 7.50603 16.382C7.20883 16.382 6.96797 16.1459 6.96797 15.8546V6.34845C6.96797 6.05717 7.20883 5.82111 7.50603 5.82111C7.80322 5.82111 8.04408 6.05717 8.04408 6.34845V15.8546Z" fill="#67708D"/>
</svg>
