<svg width="40" height="26" viewBox="0 0 40 26" fill="none" xmlns="http://www.w3.org/2000/svg">
<path fill-rule="evenodd" clip-rule="evenodd" d="M39.9827 19.8787C39.8266 19.0866 38.448 12.1097 38.1075 11.0911C37.2887 8.64203 35.3215 5.85405 32.8455 3.63323C30.271 1.32427 27.6037 0 25.5273 0H5.32919C4.28243 0 3.43077 0.848056 3.43077 1.89039V4.86076H2.03223C1.51935 4.86076 1.10354 5.27482 1.10354 5.78553C1.10354 6.29625 1.51935 6.71031 2.03223 6.71031H3.43069V8.91625H0.928698C0.415815 8.91625 0 9.3303 0 9.84102C0 10.3517 0.415815 10.7658 0.928698 10.7658H3.43069V20.0567C3.43069 21.099 4.28235 21.947 5.32911 21.947H7.64456C7.99076 24.2379 9.98052 26 12.3761 26C14.7716 26 16.7614 24.2379 17.1075 21.947H25.626C25.9721 24.2379 27.962 26 30.3575 26C32.7531 26 34.7428 24.2379 35.089 21.947H38.1015C39.1483 21.947 40 21.099 40 20.0567C40 19.997 39.9942 19.9374 39.9827 19.8787ZM36.2389 11.3771L26.6691 11.377V2.01488C30.0593 2.92156 34.7583 7.41305 36.2389 11.3771ZM9.44841 21.2352C9.44841 22.8427 10.7618 24.1505 12.3762 24.1505C13.9905 24.1505 15.3037 22.8427 15.3038 21.2352C15.3038 19.6277 13.9905 18.3199 12.3762 18.3199C10.7618 18.3199 9.44841 19.6277 9.44841 21.2352ZM30.3576 24.1505C28.7433 24.1505 27.4299 22.8427 27.4299 21.2352C27.4299 19.6277 28.7433 18.3199 30.3576 18.3199C31.9719 18.3199 33.2853 19.6277 33.2853 21.2352C33.2853 22.8427 31.9719 24.1505 30.3576 24.1505ZM35.0038 20.0975H38.0556C38.1036 20.0975 38.1306 20.0835 38.1212 20.0405C37.8915 18.9805 37.6418 17.7357 37.4001 16.5309C37.1554 15.3107 36.9189 14.1314 36.7196 13.2266L25.7404 13.2266C25.2274 13.2266 24.8117 12.8125 24.8117 12.3018V1.84962H5.32911C5.3065 1.84962 5.28809 1.86796 5.28809 1.89047V4.86084H10.5268C11.0396 4.86084 11.4555 5.2749 11.4555 5.78561C11.4555 6.29633 11.0396 6.71039 10.5268 6.71039H5.28809V8.91633H16.6695C17.1824 8.91633 17.5982 9.33039 17.5982 9.8411C17.5982 10.3518 17.1824 10.7659 16.6695 10.7659H5.28817V20.0568C5.28817 20.0792 5.30658 20.0975 5.32919 20.0975H7.72992C8.24361 18.0179 10.1314 16.4704 12.3762 16.4704C14.6209 16.4704 16.5086 18.0179 17.0223 20.0975H25.7114C26.2251 18.0179 28.1128 16.4704 30.3576 16.4704C32.6024 16.4704 34.4901 18.0179 35.0038 20.0975Z" fill="black"/>
</svg>
