<svg width="40" height="24" viewBox="0 0 40 24" fill="none" xmlns="http://www.w3.org/2000/svg">
<rect x="0.25" y="0.25" width="39.5" height="23.5" rx="1.35" fill="white" stroke="#E6772F" stroke-width="0.5"/>
<path fill-rule="evenodd" clip-rule="evenodd" d="M9.64624 24.0003H38.4001C39.2837 24.0003 40.0001 23.2839 40.0001 22.4003V13.4795C40.0001 13.4795 29.2799 20.7475 9.64624 24.0003Z" fill="#E6772F"/>
<mask id="mask0_1_8475" style="mask-type:luminance" maskUnits="userSpaceOnUse" x="9" y="13" width="31" height="11">
<path fill-rule="evenodd" clip-rule="evenodd" d="M9.64624 24.0003H38.4001C39.2837 24.0003 40.0001 23.2839 40.0001 22.4003V13.4795C40.0001 13.4795 29.2799 20.7475 9.64624 24.0003Z" fill="white"/>
</mask>
<g mask="url(#mask0_1_8475)">
</g>
<path fill-rule="evenodd" clip-rule="evenodd" d="M7.31535 11.929C7.01506 12.1858 6.6328 12.2981 6.02151 12.2981H5.76785V9.23407H6.02151C6.6328 9.23407 7.0004 9.33878 7.31535 9.60832C7.64045 9.88685 7.83582 10.3165 7.83582 10.7609C7.83582 11.2075 7.64045 11.6525 7.31535 11.929ZM6.21085 8.44922H4.823V13.0833H6.20239C6.93647 13.0833 7.46634 12.9161 7.93077 12.5473C8.48246 12.1104 8.80982 11.4508 8.80982 10.7674C8.80982 9.39942 7.7418 8.44922 6.21085 8.44922Z" fill="#1A1919"/>
<path fill-rule="evenodd" clip-rule="evenodd" d="M9.24561 8.44922H10.1867V13.0833H9.24561V8.44922Z" fill="#1A1919"/>
<path fill-rule="evenodd" clip-rule="evenodd" d="M12.4977 10.2253C11.9297 10.026 11.7637 9.89318 11.7637 9.64272C11.7637 9.3516 12.0604 9.13083 12.4684 9.13083C12.7512 9.13083 12.9842 9.23915 13.2324 9.50382L13.7237 8.88703C13.3177 8.54516 12.8319 8.37207 12.3022 8.37207C11.4451 8.37207 10.7919 8.94262 10.7919 9.69706C10.7919 10.3376 11.0956 10.6626 11.9818 10.9711C12.3522 11.0944 12.5404 11.1786 12.6358 11.2356C12.8245 11.3524 12.9185 11.5197 12.9185 11.7132C12.9185 12.0901 12.6064 12.3672 12.1845 12.3672C11.7353 12.3672 11.3718 12.152 11.1543 11.7479L10.5454 12.3121C10.9807 12.9225 11.5025 13.1952 12.2213 13.1952C13.2017 13.1952 13.8925 12.5671 13.8925 11.6725C13.8925 10.9353 13.5721 10.6012 12.4977 10.2253Z" fill="#1A1919"/>
<path fill-rule="evenodd" clip-rule="evenodd" d="M14.1892 10.7676C14.1892 12.1304 15.3071 13.1864 16.7461 13.1864C17.1518 13.1864 17.4997 13.1098 17.928 12.9163V11.8514C17.5495 12.2153 17.2173 12.3589 16.7874 12.3589C15.8365 12.3589 15.163 11.7006 15.163 10.7612C15.163 9.87358 15.8584 9.17042 16.7461 9.17042C17.1939 9.17042 17.5362 9.32228 17.928 9.69167V8.62793C17.5142 8.42767 17.1746 8.34473 16.7654 8.34473C15.3347 8.34473 14.1892 9.42142 14.1892 10.7676Z" fill="#1A1919"/>
<path fill-rule="evenodd" clip-rule="evenodd" d="M25.5794 11.5604L24.288 8.44922H23.2583L25.3112 13.2002H25.8176L27.9104 8.44922H26.8888L25.5794 11.5604Z" fill="#1A1919"/>
<path fill-rule="evenodd" clip-rule="evenodd" d="M28.3389 13.0833H31.017V12.2981H29.2837V11.0472H30.9512V10.2622H29.2837V9.23407H31.017V8.44922H28.3389V13.0833Z" fill="#1A1919"/>
<path fill-rule="evenodd" clip-rule="evenodd" d="M32.8617 10.5801H32.5875V9.17847H32.8771C33.4672 9.17847 33.7832 9.41543 33.7832 9.86687C33.7832 10.3307 33.4672 10.5801 32.8617 10.5801ZM34.7557 9.81649C34.7557 8.9487 34.1337 8.44922 33.0433 8.44922H31.6406V13.0833H32.5875V11.2201H32.7103L34.0151 13.0833H35.1769L33.6533 11.1302C34.3654 10.9909 34.7557 10.5256 34.7557 9.81649Z" fill="#1A1919"/>
<path fill-rule="evenodd" clip-rule="evenodd" d="M23.3916 10.7782C23.3916 12.1124 22.2619 13.1937 20.8671 13.1937C19.4727 13.1937 18.3428 12.1124 18.3428 10.7782C18.3428 9.44385 19.4727 8.3623 20.8671 8.3623C22.2619 8.3623 23.3916 9.44385 23.3916 10.7782Z" fill="#E6772F"/>
</svg>
