<svg width="50" height="50" viewBox="0 0 50 50" fill="none" xmlns="http://www.w3.org/2000/svg">
<path id="Instagram" fill-rule="evenodd" clip-rule="evenodd" d="M45.959 36.1602C45.959 41.5725 41.5716 45.96 36.1605 45.96H13.8395C8.42839 45.96 4.04104 41.5725 4.04104 36.1602V13.8398C4.04104 8.42749 8.42839 4.04113 13.8395 4.04113H36.1605C41.5716 4.04113 45.959 8.42749 45.959 13.8398V36.1602ZM36.2167 0H13.7833C6.17194 0 0 6.171 0 13.7835V36.2175C0 43.8301 6.17194 50 13.7833 50H36.2167C43.8281 50 50 43.8301 50 36.2175V13.7835C50 6.171 43.8281 0 36.2167 0ZM24.9995 33.5942C20.2528 33.5942 16.4066 29.7478 16.4066 25.0011C16.4066 20.2543 20.2528 16.4058 24.9995 16.4058C29.7472 16.4058 33.5934 20.2543 33.5934 25.0011C33.5934 29.7478 29.7472 33.5942 24.9995 33.5942ZM24.9995 11.8236C17.7226 11.8236 11.8233 17.7229 11.8233 25.0011C11.8233 32.2781 17.7226 38.1775 24.9995 38.1775C32.2774 38.1775 38.1767 32.2781 38.1767 25.0011C38.1767 17.7229 32.2774 11.8236 24.9995 11.8236ZM38.6247 14.3409C40.2567 14.3409 41.5792 13.0184 41.5792 11.3864C41.5792 9.75325 40.2567 8.42965 38.6247 8.42965C36.9916 8.42965 35.6681 9.75325 35.6681 11.3864C35.6681 13.0184 36.9916 14.3409 38.6247 14.3409Z" fill="white"/>
</svg>
