<svg width="40" height="24" viewBox="0 0 40 24" fill="none" xmlns="http://www.w3.org/2000/svg">
<rect width="40" height="24" rx="1.6" fill="#000066"/>
<path fill-rule="evenodd" clip-rule="evenodd" d="M22.4514 12.1938C22.4514 16.5051 18.9567 19.9996 14.6456 19.9996C10.3343 19.9996 6.83936 16.5051 6.83936 12.1938C6.83936 7.8826 10.3343 4.3877 14.6456 4.3877C18.9567 4.3877 22.4514 7.8826 22.4514 12.1938Z" fill="#CC0000"/>
<path fill-rule="evenodd" clip-rule="evenodd" d="M25.1257 4.3877C23.1082 4.3877 21.2707 5.1529 19.8851 6.40821C19.6032 6.66405 19.3401 6.94038 19.0972 7.23459H20.6743C20.8897 7.49686 21.0882 7.77257 21.2694 8.06135H18.502C18.3364 8.3267 18.1859 8.60241 18.0522 8.88811H21.719C21.8443 9.15568 21.9546 9.43126 22.0496 9.7145H17.7216C17.6316 9.98367 17.5556 10.2595 17.4949 10.5408H22.2761C22.3905 11.0737 22.4515 11.6266 22.4515 12.1938C22.4515 13.0604 22.3102 13.8945 22.0496 14.6736H17.7216C17.8166 14.9565 17.9269 15.2325 18.052 15.5004H21.719C21.585 15.7854 21.4352 16.0614 21.2687 16.3271H18.502C18.6825 16.615 18.8813 16.8911 19.0972 17.153H20.6739C20.4315 17.4474 20.1681 17.7238 19.8853 17.9796C21.2708 19.2349 23.1082 19.9996 25.1257 19.9996C29.4367 19.9996 32.9315 16.5051 32.9315 12.1938C32.9315 7.88297 29.4367 4.3877 25.1257 4.3877Z" fill="#FF9900"/>
<path fill-rule="evenodd" clip-rule="evenodd" d="M12.8227 13.0486C12.7337 13.0385 12.6945 13.0353 12.6334 13.0353C12.1531 13.0353 11.9102 13.2001 11.9102 13.5256C11.9102 13.7261 12.0287 13.8535 12.2138 13.8535C12.5591 13.8535 12.8079 13.5249 12.8227 13.0486ZM13.4391 14.4834C13.3261 14.4834 12.7367 14.4834 12.7367 14.4834L12.7528 14.1497C12.5387 14.4132 12.2529 14.539 11.8647 14.539C11.4055 14.539 11.0906 14.1805 11.0906 13.6596C11.0906 12.8754 11.6382 12.4181 12.5783 12.4181C12.6746 12.4181 12.7978 12.427 12.9238 12.4429C12.95 12.3366 12.9569 12.2914 12.9569 12.234C12.9569 12.0209 12.8093 11.9409 12.4135 11.9409C11.9989 11.9367 11.6569 12.04 11.5164 12.0861C11.5253 12.0326 11.634 11.3619 11.634 11.3619C12.0561 11.2378 12.3347 11.1914 12.6481 11.1914C13.3759 11.1914 13.7614 11.5181 13.7606 12.1356C13.7621 12.3013 13.7345 12.5049 13.692 12.7736C13.6185 13.2399 13.4606 14.24 13.4391 14.4834Z" fill="#000066"/>
<path fill-rule="evenodd" clip-rule="evenodd" d="M10.736 14.4839H9.88836L10.3741 11.4404L9.28994 14.4839H8.71249L8.64107 11.4574L8.13085 14.4839H7.33765L8.00021 10.5244H9.21888L9.29253 12.7407L10.036 10.5244H11.3914L10.736 14.4839Z" fill="#000066"/>
<path fill-rule="evenodd" clip-rule="evenodd" d="M26.1728 13.0486C26.0838 13.0385 26.0451 13.0353 25.9841 13.0353C25.5034 13.0353 25.2608 13.2001 25.2608 13.5256C25.2608 13.7261 25.3788 13.8535 25.5644 13.8535C25.9094 13.8535 26.1583 13.5249 26.1728 13.0486ZM26.7896 14.4834C26.6763 14.4834 26.0874 14.4834 26.0874 14.4834L26.1033 14.1497C25.8892 14.4132 25.6035 14.539 25.2155 14.539C24.7557 14.539 24.4412 14.1805 24.4412 13.6596C24.4412 12.8754 24.989 12.4181 25.9289 12.4181C26.0251 12.4181 26.148 12.427 26.2742 12.4429C26.3004 12.3366 26.3072 12.2914 26.3072 12.234C26.3072 12.0209 26.1597 11.9409 25.7638 11.9409C25.3492 11.9367 25.0074 12.04 24.8664 12.0861C24.8758 12.0326 24.9847 11.3619 24.9847 11.3619C25.4066 11.2378 25.6854 11.1914 25.9983 11.1914C26.7266 11.1914 27.1117 11.5181 27.1109 12.1356C27.1124 12.3013 27.0851 12.5049 27.0423 12.7736C26.9691 13.2399 26.8108 14.24 26.7896 14.4834Z" fill="#000066"/>
<path fill-rule="evenodd" clip-rule="evenodd" d="M17.2054 14.4348C16.9733 14.5079 16.7926 14.5395 16.5965 14.5395C16.1634 14.5395 15.9269 14.2905 15.9269 13.832C15.9208 13.6896 15.9892 13.3152 16.043 12.9738C16.0921 12.6729 16.4106 10.7764 16.4106 10.7764H17.2528L17.1544 11.2638H17.6633L17.5485 12.0377H17.0379C16.94 12.65 16.8005 13.4128 16.7989 13.514C16.7989 13.68 16.8875 13.7525 17.0892 13.7525C17.1858 13.7525 17.2605 13.7427 17.3176 13.7222L17.2054 14.4348Z" fill="#000066"/>
<path fill-rule="evenodd" clip-rule="evenodd" d="M19.7879 14.4084C19.4985 14.4968 19.2196 14.54 18.9237 14.539C17.9806 14.5378 17.489 14.0456 17.489 13.1025C17.489 12.0019 18.1143 11.1914 18.9634 11.1914C19.6578 11.1914 20.1015 11.6451 20.1015 12.3564C20.1015 12.5929 20.0712 12.8233 19.9975 13.1485H18.3201C18.2635 13.6157 18.5622 13.8102 19.0526 13.8102C19.3537 13.8102 19.6259 13.748 19.9282 13.6078L19.7879 14.4084ZM19.3145 12.4995C19.3193 12.4323 19.4037 11.9247 18.9222 11.9247C18.6543 11.9247 18.4622 12.1292 18.3844 12.4995H19.3145Z" fill="#000066"/>
<path fill-rule="evenodd" clip-rule="evenodd" d="M13.9473 12.2814C13.9473 12.6884 14.1447 12.9693 14.5925 13.1803C14.9356 13.3418 14.989 13.3896 14.989 13.5357C14.989 13.7362 14.8375 13.8272 14.5023 13.8272C14.2493 13.8272 14.0142 13.7875 13.7429 13.6998C13.7429 13.6998 13.6318 14.4099 13.6265 14.4438C13.819 14.4855 13.9907 14.5243 14.5084 14.539C15.4025 14.539 15.8155 14.1985 15.8155 13.4627C15.8155 13.0203 15.6428 12.7607 15.2182 12.5653C14.863 12.4023 14.8219 12.3658 14.8219 12.2155C14.8219 12.0415 14.9629 11.9525 15.2367 11.9525C15.4031 11.9525 15.6302 11.9703 15.8457 12.0008L15.9662 11.2539C15.7469 11.219 15.4141 11.1914 15.2204 11.1914C14.2725 11.1914 13.9442 11.6864 13.9473 12.2814Z" fill="#000066"/>
<path fill-rule="evenodd" clip-rule="evenodd" d="M23.9095 11.2766C24.1449 11.2766 24.3647 11.3378 24.6668 11.4904L24.8056 10.6311C24.681 10.5822 24.2442 10.2959 23.8741 10.2959C23.3071 10.2959 22.8273 10.5777 22.4904 11.0416C21.9984 10.8788 21.796 11.2079 21.5483 11.536L21.3281 11.5874C21.3447 11.4794 21.3599 11.3722 21.3551 11.2635H20.5764C20.4703 12.2604 20.282 13.2697 20.1346 14.267L20.0959 14.4836H20.9438C21.0853 13.5641 21.1626 12.9755 21.2098 12.5768L21.529 12.3999C21.577 12.2222 21.7259 12.1625 22.0254 12.1697C21.9863 12.3797 21.9651 12.6009 21.9651 12.8297C21.9651 13.8833 22.5343 14.5392 23.4462 14.5392C23.6812 14.5392 23.883 14.5084 24.1954 14.4233L24.344 13.521C24.063 13.6591 23.8329 13.7241 23.6243 13.7241C23.1316 13.7241 22.8334 13.3603 22.8334 12.7594C22.8334 11.8874 23.2765 11.2766 23.9095 11.2766Z" fill="#000066"/>
<path fill-rule="evenodd" clip-rule="evenodd" d="M31.0843 10.5244L30.8959 11.6683C30.6646 11.3635 30.4157 11.1427 30.0871 11.1427C29.6595 11.1427 29.2703 11.4669 29.0154 11.9443C28.6605 11.8706 28.2938 11.7454 28.2938 11.7454L28.2935 11.7485C28.3218 11.4817 28.3337 11.3193 28.3309 11.2638H27.5524C27.4467 12.2607 27.2581 13.27 27.1108 14.2673L27.0718 14.4839H27.9199C28.0344 13.7408 28.1218 13.123 28.1863 12.6337C28.4762 12.3717 28.6213 12.1439 28.9135 12.1587C28.7839 12.4723 28.7083 12.8332 28.7083 13.2035C28.7083 14.0082 29.1151 14.5395 29.7314 14.5395C30.042 14.5395 30.2804 14.4323 30.5128 14.1841L30.4728 14.4836H31.2746L31.9202 10.5244H31.0843ZM30.0245 13.74C29.7361 13.74 29.59 13.5261 29.59 13.1052C29.59 12.4723 29.863 12.0236 30.2473 12.0236C30.5386 12.0236 30.6965 12.2452 30.6965 12.6542C30.6965 13.2926 30.4189 13.74 30.0245 13.74Z" fill="#000066"/>
<path fill-rule="evenodd" clip-rule="evenodd" d="M10.9797 14.2482H10.1324L10.618 11.2046L9.53408 14.2482H8.95639L8.88509 11.2223L8.37475 14.2482H7.58154L8.24411 10.2891H9.46278L9.49683 12.74L10.3191 10.2891H11.6353L10.9797 14.2482Z" fill="white"/>
<path fill-rule="evenodd" clip-rule="evenodd" d="M13.0667 12.8147C12.9779 12.8043 12.9386 12.8015 12.8776 12.8015C12.3972 12.8015 12.1542 12.9661 12.1542 13.2914C12.1542 13.4916 12.2729 13.6198 12.458 13.6198C12.8032 13.6198 13.052 13.2911 13.0667 12.8147ZM13.683 14.249C13.5701 14.249 12.981 14.249 12.981 14.249L12.997 13.9156C12.7828 14.1789 12.497 14.3049 12.1088 14.3049C11.6495 14.3049 11.3347 13.9459 11.3347 13.4251C11.3347 12.6408 11.8824 12.1841 12.8226 12.1841C12.9187 12.1841 13.0418 12.1928 13.168 12.2091C13.1941 12.1026 13.201 12.0573 13.201 11.9997C13.201 11.7866 13.0535 11.7073 12.6576 11.7073C12.2429 11.7024 11.9011 11.8056 11.7604 11.8516C11.7694 11.7983 11.878 11.1276 11.878 11.1276C12.3003 11.0038 12.5788 10.957 12.8923 10.957C13.62 10.957 14.0053 11.2841 14.0047 11.9014C14.0061 12.0668 13.9788 12.2714 13.9361 12.5394C13.8625 13.0053 13.7046 14.006 13.683 14.249Z" fill="white"/>
<path fill-rule="evenodd" clip-rule="evenodd" d="M25.0493 10.3961L24.9106 11.2553C24.608 11.1032 24.3887 11.0416 24.1536 11.0416C23.5209 11.0416 23.0771 11.6531 23.0771 12.5253C23.0771 13.1261 23.3753 13.4892 23.868 13.4892C24.0768 13.4892 24.3073 13.4247 24.5877 13.2861L24.4388 14.1884C24.1269 14.2734 23.9249 14.3045 23.69 14.3045C22.7775 14.3045 22.2092 13.6485 22.2092 12.5951C22.2092 11.1797 22.9949 10.1904 24.118 10.1904C24.4881 10.1904 24.9251 10.3472 25.0493 10.3961Z" fill="white"/>
<path fill-rule="evenodd" clip-rule="evenodd" d="M26.4164 12.8147C26.3281 12.8043 26.2887 12.8015 26.2278 12.8015C25.7477 12.8015 25.5045 12.9661 25.5045 13.2914C25.5045 13.4916 25.6231 13.6198 25.8081 13.6198C26.1532 13.6198 26.4022 13.2911 26.4164 12.8147ZM27.0332 14.249C26.9205 14.249 26.3312 14.249 26.3312 14.249L26.3471 13.9156C26.1329 14.1789 25.8471 14.3049 25.4593 14.3049C24.9995 14.3049 24.6851 13.9459 24.6851 13.4251C24.6851 12.6408 25.2323 12.1841 26.1727 12.1841C26.2688 12.1841 26.3916 12.1928 26.5177 12.2091C26.544 12.1026 26.5509 12.0573 26.5509 11.9997C26.5509 11.7866 26.4037 11.7073 26.0076 11.7073C25.5932 11.7024 25.2515 11.8056 25.1106 11.8516C25.1195 11.7983 25.2282 11.1276 25.2282 11.1276C25.6505 11.0038 25.9288 10.957 26.2422 10.957C26.9699 10.957 27.3557 11.2841 27.3547 11.9014C27.3564 12.0668 27.3289 12.2714 27.2862 12.5394C27.2128 13.0053 27.0549 14.006 27.0332 14.249Z" fill="white"/>
<path fill-rule="evenodd" clip-rule="evenodd" d="M17.449 14.2002C17.2172 14.2733 17.0363 14.305 16.8404 14.305C16.4071 14.305 16.1705 14.0559 16.1705 13.5979C16.1646 13.455 16.2331 13.0812 16.287 12.7394C16.3357 12.4383 16.6543 10.542 16.6543 10.542H17.4968L17.3982 11.0293H17.8307L17.7155 11.803H17.2816C17.1838 12.4158 17.0443 13.1782 17.0426 13.2793C17.0426 13.4459 17.1315 13.5179 17.3329 13.5179C17.4295 13.5179 17.5042 13.5084 17.5615 13.4875L17.449 14.2002Z" fill="white"/>
<path fill-rule="evenodd" clip-rule="evenodd" d="M20.0322 14.1746C19.7427 14.2633 19.4632 14.3051 19.1676 14.3049C18.2244 14.3043 17.7332 13.8115 17.7332 12.8685C17.7332 11.7675 18.3583 10.957 19.2068 10.957C19.9019 10.957 20.3454 11.4107 20.3454 12.1229C20.3454 12.3589 20.3146 12.5892 20.2418 12.9145H18.5641C18.5072 13.3817 18.8064 13.5766 19.2962 13.5766C19.5976 13.5766 19.8696 13.5142 20.1723 13.3735L20.0322 14.1746ZM19.5586 12.2651C19.5632 12.1978 19.6479 11.6904 19.1666 11.6904C18.8984 11.6904 18.7063 11.8953 18.6283 12.2651H19.5586Z" fill="white"/>
<path fill-rule="evenodd" clip-rule="evenodd" d="M14.1912 12.047C14.1912 12.4547 14.3888 12.735 14.8368 12.9463C15.1798 13.1077 15.233 13.1554 15.233 13.3017C15.233 13.5024 15.0816 13.593 14.7462 13.593C14.4934 13.593 14.2582 13.5538 13.9868 13.4663C13.9868 13.4663 13.8758 14.1759 13.8706 14.2093C14.063 14.2515 14.2349 14.29 14.7523 14.3049C15.6466 14.3049 16.0596 13.9645 16.0596 13.2287C16.0596 12.7861 15.8867 12.5265 15.4622 12.3316C15.1069 12.1682 15.0661 12.132 15.0661 11.9815C15.0661 11.8075 15.207 11.7179 15.4809 11.7179C15.647 11.7179 15.8743 11.7364 16.0897 11.7668L16.2104 11.0201C15.9909 10.9854 15.6583 10.957 15.4645 10.957C14.5164 10.957 14.1884 11.4522 14.1912 12.047Z" fill="white"/>
<path fill-rule="evenodd" clip-rule="evenodd" d="M31.5186 14.2482H30.7171L30.7568 13.9485C30.5242 14.1969 30.286 14.3041 29.9754 14.3041C29.3596 14.3041 28.9521 13.7734 28.9521 12.9678C28.9521 11.8968 29.5839 10.9941 30.3311 10.9941C30.6597 10.9941 30.9085 11.1283 31.1403 11.4332L31.3283 10.2891H32.1641L31.5186 14.2482ZM30.2684 13.5042C30.6633 13.5042 30.9403 13.057 30.9403 12.4192C30.9403 12.0101 30.7826 11.7878 30.4913 11.7878C30.1069 11.7878 29.834 12.2365 29.834 12.8698C29.834 13.2911 29.9802 13.5042 30.2684 13.5042Z" fill="white"/>
<path fill-rule="evenodd" clip-rule="evenodd" d="M27.7966 11.0287C27.6907 12.0253 27.5022 13.0347 27.3548 14.032L27.3162 14.2485H28.1638C28.467 12.2795 28.5399 11.8952 29.0156 11.9432C29.0912 11.5402 29.2322 11.1872 29.3372 11.0093C28.9823 10.9353 28.784 11.1359 28.5242 11.5171C28.5449 11.3522 28.5823 11.1922 28.5753 11.0287H27.7966Z" fill="white"/>
<path fill-rule="evenodd" clip-rule="evenodd" d="M20.8207 11.0287C20.7142 12.0253 20.5255 13.0347 20.3783 14.032L20.3398 14.2485H21.1877C21.491 12.2795 21.5637 11.8952 22.0386 11.9432C22.1147 11.5402 22.256 11.1872 22.3607 11.0093C22.0062 10.9353 21.8076 11.1359 21.5483 11.5171C21.5688 11.3522 21.6064 11.1922 21.599 11.0287H20.8207Z" fill="white"/>
</svg>
