<svg width="33" height="33" viewBox="0 0 33 33" fill="none" xmlns="http://www.w3.org/2000/svg">
<path fill-rule="evenodd" clip-rule="evenodd" d="M21.1249 23.3164C18.9389 25.0193 16.2474 25.9439 13.4765 25.9438C10.7039 25.9452 8.00991 25.0223 5.82037 23.3211C0.381749 19.0956 -0.60209 11.2605 3.62284 5.8211C7.84776 0.381655 15.6815 -0.602333 21.1202 3.62323C26.5588 7.8488 27.5426 15.6838 23.3177 21.1233L31.5647 29.3715C32.1451 29.9725 32.1451 30.9254 31.5647 31.5265C30.9697 32.1426 29.988 32.1597 29.3719 31.5646L21.1249 23.3164ZM20.1031 6.84614C16.4434 3.18589 10.5098 3.18596 6.85015 6.84627L6.80193 6.89451C3.1689 10.5548 3.19046 16.4676 6.85015 20.1011L6.85029 20.1013C10.51 23.7615 16.4436 23.7614 20.1033 20.1011C23.763 16.4408 23.7629 10.5064 20.1031 6.84614Z" fill="black"/>
<path d="M13.4765 25.9438L13.4766 25.5938H13.4764L13.4765 25.9438ZM21.1249 23.3164L21.3724 23.0689L21.1538 22.8502L20.9098 23.0403L21.1249 23.3164ZM5.82037 23.3211L6.03511 23.0448L6.03511 23.0448L5.82037 23.3211ZM3.62284 5.8211L3.89925 6.0358L3.62284 5.8211ZM23.3177 21.1233L23.0413 20.9086L22.8519 21.1524L23.0702 21.3707L23.3177 21.1233ZM31.5647 29.3715L31.8165 29.1283L31.8122 29.1241L31.5647 29.3715ZM31.5647 31.5265L31.3129 31.2833L31.3129 31.2833L31.5647 31.5265ZM29.3719 31.5646L29.1244 31.8121L29.1288 31.8164L29.3719 31.5646ZM6.85015 6.84627L7.09766 7.09374L7.09766 7.09374L6.85015 6.84627ZM20.1031 6.84614L20.3506 6.59867L20.1031 6.84614ZM6.80193 6.89451L6.55442 6.64704L6.55352 6.64794L6.80193 6.89451ZM6.85015 20.1011L7.09676 19.8528L7.09675 19.8528L6.85015 20.1011ZM6.85029 20.1013L7.09779 19.8538L7.09689 19.8529L6.85029 20.1013ZM20.1033 20.1011L19.8558 19.8537L20.1033 20.1011ZM13.4765 26.2938C16.3253 26.2939 19.0926 25.3433 21.34 23.5925L20.9098 23.0403C18.7853 24.6953 16.1695 25.5939 13.4766 25.5938L13.4765 26.2938ZM5.60563 23.5975C7.85663 25.3465 10.6262 26.2952 13.4767 26.2938L13.4764 25.5938C10.7816 25.5952 8.1632 24.6982 6.03511 23.0448L5.60563 23.5975ZM3.34642 5.6064C-0.997057 11.1985 0.0143731 19.2534 5.60563 23.5975L6.03511 23.0448C0.749125 18.9378 -0.207123 11.3226 3.89925 6.0358L3.34642 5.6064ZM21.3349 3.34685C15.7436 -0.997331 7.68993 0.0142905 3.34642 5.6064L3.89925 6.0358C8.0056 0.74902 15.6195 -0.207335 20.9054 3.89962L21.3349 3.34685ZM23.5941 21.338C27.9376 15.7459 26.9262 7.69101 21.3349 3.34685L20.9054 3.89962C26.1914 8.00659 27.1476 15.6218 23.0413 20.9086L23.5941 21.338ZM31.8122 29.1241L23.5652 20.8758L23.0702 21.3707L31.3172 29.619L31.8122 29.1241ZM31.8165 31.7696C32.5278 31.0329 32.5279 29.865 31.8164 29.1284L31.3129 29.6147C31.7624 30.08 31.7624 30.8179 31.3129 31.2833L31.8165 31.7696ZM29.1288 31.8164C29.8839 32.5457 31.0872 32.5248 31.8165 31.7696L31.3129 31.2833C30.8522 31.7604 30.0921 31.7737 29.6151 31.3129L29.1288 31.8164ZM20.8774 23.5638L29.1244 31.8121L29.6194 31.3172L21.3724 23.0689L20.8774 23.5638ZM7.09766 7.09374C10.6207 3.57013 16.3326 3.57007 19.8556 7.09361L20.3506 6.59867C16.5542 2.80171 10.399 2.80178 6.60265 6.5988L7.09766 7.09374ZM7.04943 7.14198L7.09766 7.09374L6.60265 6.5988L6.55442 6.64704L7.04943 7.14198ZM7.09675 19.8528C3.57422 16.3554 3.55347 10.6641 7.05033 7.14107L6.55352 6.64794C2.78434 10.4454 2.8067 16.5797 6.60355 20.3495L7.09675 19.8528ZM7.09689 19.8529L7.09676 19.8528L6.60355 20.3495L6.60368 20.3496L7.09689 19.8529ZM19.8558 19.8537C16.3328 23.3773 10.6209 23.3773 7.09779 19.8538L6.60278 20.3487C10.3992 24.1457 16.5544 24.1456 20.3508 20.3486L19.8558 19.8537ZM19.8556 7.09361C23.3787 10.6172 23.3788 16.33 19.8558 19.8537L20.3508 20.3486C24.1471 16.5516 24.1471 10.3956 20.3506 6.59867L19.8556 7.09361Z" fill="white"/>
</svg>
