<svg width="52" height="44" viewBox="0 0 52 44" fill="none" xmlns="http://www.w3.org/2000/svg">
<path id="Twitter" fill-rule="evenodd" clip-rule="evenodd" d="M45.8743 6.95674C48.0779 5.58382 49.7689 3.40686 50.5655 0.813579C48.5022 2.0848 46.2222 3.00961 43.7866 3.50538C41.8454 1.34749 39.071 0 36.0005 0C30.1128 0 25.3362 4.97364 25.3362 11.1073C25.3362 11.978 25.4277 12.8234 25.6108 13.637C16.7443 13.173 8.8849 8.75551 3.61989 2.02759C2.70118 3.67382 2.1762 5.58382 2.1762 7.61777C2.1762 11.4696 4.0594 14.8701 6.92235 16.8627C5.1765 16.8087 3.52832 16.3034 2.08769 15.4771V15.6137C2.08769 20.9973 5.76557 25.4879 10.6491 26.5049C9.75477 26.7655 8.81165 26.8958 7.838 26.8958C7.15126 26.8958 6.47978 26.829 5.82966 26.6987C7.18789 31.1099 11.1252 34.3229 15.795 34.4087C12.1446 37.3897 7.54194 39.1662 2.54552 39.1662C1.6848 39.1662 0.833245 39.1153 0 39.0137C4.72172 42.1599 10.3316 44 16.3536 44C35.9791 44 46.7075 27.0769 46.7075 12.3975C46.7075 11.9145 46.6984 11.4314 46.68 10.9579C48.7647 9.39112 50.5746 7.43662 52 5.20881C50.0893 6.09231 48.0322 6.68978 45.8743 6.95674Z" fill="white"/>
</svg>
