<svg width="29" height="31" viewBox="0 0 29 31" fill="none" xmlns="http://www.w3.org/2000/svg">
<path fill-rule="evenodd" clip-rule="evenodd" d="M0 29.8685C0 21.8673 5.14959 17.4609 14.5 17.4609C23.8505 17.4609 29.0001 21.8677 29 29.8685C29 30.4934 28.4916 30.9999 27.8642 30.9999H1.13576C0.508437 30.9999 0 30.4934 0 29.8685ZM14.5 19.7238C6.85402 19.7238 2.7596 22.7547 2.31286 28.7371H26.6876C26.2405 22.7547 22.146 19.7238 14.5 19.7238Z" fill="black"/>
<path fill-rule="evenodd" clip-rule="evenodd" d="M6.96606 7.65537C6.96606 3.29121 10.2049 0 14.5 0C18.7951 0 22.0339 3.29121 22.0339 7.65573C22.0339 12.1473 18.6542 15.8013 14.5 15.8013C10.3458 15.8013 6.96606 12.1473 6.96606 7.65537ZM9.23759 7.65573C9.23759 10.8998 11.5981 13.5389 14.5 13.5389C17.4019 13.5389 19.7624 10.8998 19.7624 7.65573C19.7624 4.58098 17.5003 2.26276 14.5 2.26276C11.4508 2.26276 9.23759 4.53084 9.23759 7.65573Z" fill="black"/>
</svg>
