<svg width="40" height="24" viewBox="0 0 40 24" fill="none" xmlns="http://www.w3.org/2000/svg">
<rect width="40" height="24" rx="1.6" fill="#26337A"/>
<path fill-rule="evenodd" clip-rule="evenodd" d="M16.5959 15.8191L17.8258 8.18945H19.7918L18.562 15.8191H16.5959Z" fill="#FFFFFE"/>
<path fill-rule="evenodd" clip-rule="evenodd" d="M25.6933 8.37675C25.3045 8.22363 24.6932 8.05664 23.9316 8.05664C21.9879 8.05664 20.6197 9.09202 20.6084 10.5746C20.596 11.6713 21.5847 12.2829 22.3301 12.6474C23.0962 13.021 23.3536 13.2601 23.3505 13.5942C23.3452 14.1052 22.7391 14.3393 22.1738 14.3393C21.3867 14.3393 20.9685 14.2241 20.322 13.9392L20.0691 13.8178L19.7942 15.5256C20.2526 15.7381 21.1025 15.9226 21.9845 15.9322C24.0501 15.9322 25.3924 14.9094 25.4081 13.3262C25.4152 12.4565 24.8913 11.7974 23.7568 11.2531C23.0697 10.8993 22.6481 10.665 22.6529 10.3069C22.6534 9.98982 23.0091 9.65033 23.7791 9.65033C24.4222 9.63996 24.8877 9.78847 25.2505 9.94351L25.427 10.0307L25.6933 8.37675Z" fill="#FFFFFE"/>
<path fill-rule="evenodd" clip-rule="evenodd" d="M28.311 13.1141C28.4739 12.6756 29.0942 10.9815 29.0942 10.9815C29.0827 11.0017 29.2562 10.5396 29.3555 10.2536L29.4882 10.9116C29.4882 10.9116 29.8654 12.7327 29.9431 13.1141C29.6371 13.1141 28.6949 13.1141 28.311 13.1141ZM30.7364 8.19727H29.2171C28.7458 8.19727 28.3931 8.33225 28.1867 8.82972L25.2671 15.8218H27.332C27.332 15.8218 27.6689 14.8812 27.7453 14.6748C27.9705 14.6748 29.977 14.6787 30.2634 14.6787C30.3223 14.945 30.5027 15.8218 30.5027 15.8218H32.3275L30.7364 8.19727Z" fill="#FFFFFE"/>
<path fill-rule="evenodd" clip-rule="evenodd" d="M14.9467 8.19531L13.0225 13.3969L12.8164 12.3395C12.4578 11.1213 11.3416 9.80083 10.093 9.1392L11.8534 15.8119L13.934 15.8106L17.03 8.19531H14.9467Z" fill="#FFFFFE"/>
<path fill-rule="evenodd" clip-rule="evenodd" d="M11.2362 8.19043H8.06588L8.03979 8.34851C10.5067 8.98051 12.1389 10.506 12.8163 12.3398L12.1274 8.83415C12.0086 8.35066 11.6631 8.20733 11.2362 8.19043Z" fill="#EC982D"/>
</svg>
